<svg xmlns="http://www.w3.org/2000/svg" xmlns:xlink="http://www.w3.org/1999/xlink" version="1.1" width="256" height="256" viewBox="0 0 256 256" xml:space="preserve">

<defs>
</defs>
<g style="stroke: none; stroke-width: 0; stroke-dasharray: none; stroke-linecap: butt; stroke-linejoin: miter; stroke-miterlimit: 10; fill: none; fill-rule: nonzero; opacity: 1;" transform="translate(1.4065934065934016 1.4065934065934016) scale(2.81 2.81)" >
	<circle cx="39.747" cy="44.997" r="38.747" style="stroke: none; stroke-width: 1; stroke-dasharray: none; stroke-linecap: butt; stroke-linejoin: miter; stroke-miterlimit: 10; fill: rgb(121,151,247); fill-rule: nonzero; opacity: 1;" transform="  matrix(1 0 0 1 0 0) "/>
	<circle cx="23.802999999999997" cy="30.913" r="10.043" style="stroke: none; stroke-width: 1; stroke-dasharray: none; stroke-linecap: butt; stroke-linejoin: miter; stroke-miterlimit: 10; fill: rgb(148,252,124); fill-rule: nonzero; opacity: 1;" transform="  matrix(1 0 0 1 0 0) "/>
	<circle cx="23.802999999999997" cy="59.092999999999996" r="10.043" style="stroke: none; stroke-width: 1; stroke-dasharray: none; stroke-linecap: butt; stroke-linejoin: miter; stroke-miterlimit: 10; fill: rgb(148,252,124); fill-rule: nonzero; opacity: 1;" transform="  matrix(1 0 0 1 0 0) "/>
	<path d="M 39.747 84.747 C 17.83 84.747 0 66.916 0 45 C 0 23.083 17.83 5.253 39.747 5.253 S 79.494 23.083 79.494 45 C 79.494 66.916 61.663 84.747 39.747 84.747 z M 39.747 7.253 C 18.933 7.253 2 24.186 2 45 s 16.933 37.746 37.747 37.746 c 20.814 0 37.747 -16.933 37.747 -37.746 S 60.561 7.253 39.747 7.253 z" style="stroke: none; stroke-width: 1; stroke-dasharray: none; stroke-linecap: butt; stroke-linejoin: miter; stroke-miterlimit: 10; fill: rgb(0,0,0); fill-rule: nonzero; opacity: 1;" transform=" matrix(1 0 0 1 0 0) " stroke-linecap="round" />
	<path d="M 23.803 41.953 c -6.089 0 -11.043 -4.954 -11.043 -11.043 s 4.954 -11.043 11.043 -11.043 s 11.043 4.954 11.043 11.043 S 29.892 41.953 23.803 41.953 z M 23.803 21.867 c -4.986 0 -9.043 4.057 -9.043 9.043 c 0 4.986 4.057 9.043 9.043 9.043 s 9.043 -4.057 9.043 -9.043 C 32.846 25.924 28.789 21.867 23.803 21.867 z" style="stroke: none; stroke-width: 1; stroke-dasharray: none; stroke-linecap: butt; stroke-linejoin: miter; stroke-miterlimit: 10; fill: rgb(0,0,0); fill-rule: nonzero; opacity: 1;" transform=" matrix(1 0 0 1 0 0) " stroke-linecap="round" />
	<path d="M 21.778 35.353 c -0.018 0 -0.036 0 -0.053 -0.001 c -0.299 -0.016 -0.576 -0.166 -0.753 -0.407 l -2.228 -3.038 c -0.327 -0.445 -0.23 -1.071 0.215 -1.397 c 0.446 -0.328 1.071 -0.23 1.397 0.215 l 1.506 2.053 l 5.456 -5.984 c 0.372 -0.407 1.004 -0.437 1.413 -0.065 c 0.408 0.372 0.437 1.004 0.065 1.413 l -6.279 6.887 C 22.326 35.236 22.058 35.353 21.778 35.353 z" style="stroke: none; stroke-width: 1; stroke-dasharray: none; stroke-linecap: butt; stroke-linejoin: miter; stroke-miterlimit: 10; fill: rgb(0,0,0); fill-rule: nonzero; opacity: 1;" transform=" matrix(1 0 0 1 0 0) " stroke-linecap="round" />
	<path d="M 58.927 27.507 H 38.838 c -0.552 0 -1 -0.448 -1 -1 c 0 -0.552 0.448 -1 1 -1 h 20.089 c 0.553 0 1 0.448 1 1 C 59.927 27.059 59.48 27.507 58.927 27.507 z" style="stroke: none; stroke-width: 1; stroke-dasharray: none; stroke-linecap: butt; stroke-linejoin: miter; stroke-miterlimit: 10; fill: rgb(0,0,0); fill-rule: nonzero; opacity: 1;" transform=" matrix(1 0 0 1 0 0) " stroke-linecap="round" />
	<path d="M 44.479 36.313 h -5.641 c -0.552 0 -1 -0.448 -1 -1 c 0 -0.552 0.448 -1 1 -1 h 5.641 c 0.552 0 1 0.448 1 1 C 45.479 35.866 45.031 36.313 44.479 36.313 z" style="stroke: none; stroke-width: 1; stroke-dasharray: none; stroke-linecap: butt; stroke-linejoin: miter; stroke-miterlimit: 10; fill: rgb(0,0,0); fill-rule: nonzero; opacity: 1;" transform=" matrix(1 0 0 1 0 0) " stroke-linecap="round" />
	<path d="M 23.803 70.133 c -6.089 0 -11.043 -4.954 -11.043 -11.043 s 4.954 -11.043 11.043 -11.043 s 11.043 4.954 11.043 11.043 S 29.892 70.133 23.803 70.133 z M 23.803 50.047 c -4.986 0 -9.043 4.057 -9.043 9.043 s 4.057 9.043 9.043 9.043 s 9.043 -4.057 9.043 -9.043 S 28.789 50.047 23.803 50.047 z" style="stroke: none; stroke-width: 1; stroke-dasharray: none; stroke-linecap: butt; stroke-linejoin: miter; stroke-miterlimit: 10; fill: rgb(0,0,0); fill-rule: nonzero; opacity: 1;" transform=" matrix(1 0 0 1 0 0) " stroke-linecap="round" />
	<path d="M 63.972 55.687 H 54.69 c -0.553 0 -1 -0.447 -1 -1 c 0 -0.553 0.447 -1 1 -1 h 9.282 c 0.553 0 1 0.447 1 1 C 64.972 55.239 64.525 55.687 63.972 55.687 z" style="stroke: none; stroke-width: 1; stroke-dasharray: none; stroke-linecap: butt; stroke-linejoin: miter; stroke-miterlimit: 10; fill: rgb(0,0,0); fill-rule: nonzero; opacity: 1;" transform=" matrix(1 0 0 1 0 0) " stroke-linecap="round" />
	<path d="M 63.972 64.492 H 38.838 c -0.552 0 -1 -0.447 -1 -1 s 0.448 -1 1 -1 h 25.134 c 0.553 0 1 0.447 1 1 S 64.525 64.492 63.972 64.492 z" style="stroke: none; stroke-width: 1; stroke-dasharray: none; stroke-linecap: butt; stroke-linejoin: miter; stroke-miterlimit: 10; fill: rgb(0,0,0); fill-rule: nonzero; opacity: 1;" transform=" matrix(1 0 0 1 0 0) " stroke-linecap="round" />
	<path d="M 38.572 58.013 l -5.801 -10.19 l 49.04 -27.916 c 1.319 -0.751 2.997 -0.29 3.748 1.029 l 3.082 5.414 c 0.751 1.319 0.29 2.997 -1.029 3.748 L 38.572 58.013 z" style="stroke: none; stroke-width: 1; stroke-dasharray: none; stroke-linecap: butt; stroke-linejoin: miter; stroke-miterlimit: 10; fill: rgb(255,226,122); fill-rule: nonzero; opacity: 1;" transform=" matrix(1 0 0 1 0 0) " stroke-linecap="round" />
	<path d="M 81.533 33.557 l -5.801 -10.19 l 6.079 -3.46 c 1.319 -0.751 2.997 -0.29 3.748 1.029 l 3.082 5.414 c 0.751 1.319 0.29 2.997 -1.029 3.748 L 81.533 33.557 z" style="stroke: none; stroke-width: 1; stroke-dasharray: none; stroke-linecap: butt; stroke-linejoin: miter; stroke-miterlimit: 10; fill: rgb(255,71,85); fill-rule: nonzero; opacity: 1;" transform=" matrix(1 0 0 1 0 0) " stroke-linecap="round" />
	<polygon points="38.57,58.01 23.51,59.84 32.77,47.82 " style="stroke: none; stroke-width: 1; stroke-dasharray: none; stroke-linecap: butt; stroke-linejoin: miter; stroke-miterlimit: 10; fill: rgb(243,237,252); fill-rule: nonzero; opacity: 1;" transform="  matrix(1 0 0 1 0 0) "/>
	<path d="M 38.573 59.013 c -0.348 0 -0.686 -0.182 -0.87 -0.505 l -5.801 -10.19 c -0.131 -0.23 -0.166 -0.504 -0.095 -0.76 c 0.07 -0.256 0.239 -0.474 0.47 -0.604 l 49.04 -27.917 c 0.871 -0.495 1.882 -0.622 2.847 -0.357 c 0.966 0.265 1.77 0.89 2.265 1.761 l 3.082 5.413 c 1.022 1.795 0.394 4.088 -1.402 5.111 L 39.066 58.882 C 38.91 58.971 38.74 59.013 38.573 59.013 z M 34.135 48.197 l 4.812 8.452 l 48.17 -27.422 c 0.838 -0.477 1.131 -1.546 0.654 -2.384 l -3.082 -5.414 c -0.23 -0.406 -0.605 -0.697 -1.056 -0.821 c -0.451 -0.125 -0.923 -0.065 -1.327 0.167 L 34.135 48.197 z" style="stroke: none; stroke-width: 1; stroke-dasharray: none; stroke-linecap: butt; stroke-linejoin: miter; stroke-miterlimit: 10; fill: rgb(0,0,0); fill-rule: nonzero; opacity: 1;" transform=" matrix(1 0 0 1 0 0) " stroke-linecap="round" />
	<path d="M 81.534 34.557 c -0.348 0 -0.686 -0.182 -0.87 -0.505 l -5.801 -10.19 c -0.131 -0.23 -0.165 -0.503 -0.095 -0.759 c 0.069 -0.256 0.238 -0.473 0.469 -0.604 l 6.079 -3.46 c 0.871 -0.495 1.882 -0.622 2.847 -0.357 c 0.966 0.265 1.77 0.891 2.265 1.761 l 3.082 5.413 c 1.022 1.795 0.394 4.088 -1.402 5.111 l -6.079 3.46 C 81.871 34.515 81.702 34.557 81.534 34.557 z M 77.096 23.741 l 4.811 8.452 l 5.21 -2.966 c 0.838 -0.477 1.131 -1.546 0.654 -2.384 l -3.082 -5.414 c -0.23 -0.406 -0.605 -0.697 -1.056 -0.821 c -0.451 -0.125 -0.923 -0.065 -1.327 0.167 L 77.096 23.741 z" style="stroke: none; stroke-width: 1; stroke-dasharray: none; stroke-linecap: butt; stroke-linejoin: miter; stroke-miterlimit: 10; fill: rgb(0,0,0); fill-rule: nonzero; opacity: 1;" transform=" matrix(1 0 0 1 0 0) " stroke-linecap="round" />
	<path d="M 40.544 51.145 c -0.348 0 -0.686 -0.182 -0.87 -0.505 c -0.273 -0.48 -0.105 -1.091 0.375 -1.364 l 32.973 -18.77 c 0.479 -0.273 1.091 -0.106 1.364 0.375 c 0.273 0.48 0.105 1.09 -0.374 1.364 l -32.973 18.77 C 40.881 51.103 40.711 51.145 40.544 51.145 z" style="stroke: none; stroke-width: 1; stroke-dasharray: none; stroke-linecap: butt; stroke-linejoin: miter; stroke-miterlimit: 10; fill: rgb(0,0,0); fill-rule: nonzero; opacity: 1;" transform=" matrix(1 0 0 1 0 0) " stroke-linecap="round" />
	<path d="M 23.511 60.84 c -0.356 0 -0.689 -0.19 -0.869 -0.505 c -0.199 -0.351 -0.169 -0.786 0.077 -1.105 l 9.26 -12.017 c 0.204 -0.266 0.524 -0.404 0.861 -0.388 c 0.334 0.023 0.634 0.213 0.8 0.503 l 5.801 10.19 c 0.166 0.291 0.175 0.646 0.024 0.944 c -0.15 0.3 -0.44 0.503 -0.772 0.544 l -15.061 1.827 C 23.591 60.838 23.551 60.84 23.511 60.84 z M 32.645 49.624 L 25.76 58.56 l 11.199 -1.358 L 32.645 49.624 z" style="stroke: none; stroke-width: 1; stroke-dasharray: none; stroke-linecap: butt; stroke-linejoin: miter; stroke-miterlimit: 10; fill: rgb(0,0,0); fill-rule: nonzero; opacity: 1;" transform=" matrix(1 0 0 1 0 0) " stroke-linecap="round" />
</g>
</svg>